PathFileType	4	(X/Y/Z)	./resultDataOpenSim/trcMotMarkerGrf/sub09/qtm-02-01.trc
DataRate	CameraRate	NumFrames	NumMarkers	Units	OrigDataRate	OrigDataStartFrame	OrigNumFrames
250.000000	250.000000	11	24	m	250.000000	304	486
Frame#	Time	L.Toe.Tip			R.Toe.Tip			L.Ankle.Lat			R.Ankle.Lat			L.Ankle.Med			R.Ankle.Med			L.Heel			R.Heel			L.Knee.Lat			R.Knee.Lat			L.Knee.Med			R.Knee.Med			L.Thigh.Upper			R.Thigh.Upper			L.ASIS			R.ASIS			V.Sacral			L.Acromium			R.Acromium			C7			L.Elbow			R.Elbow			L.Wrist.Lat			R.Wrist.Lat
		X1	Y1	Z1	X2	Y2	Z2	X3	Y3	Z3	X4	Y4	Z4	X5	Y5	Z5	X6	Y6	Z6	X7	Y7	Z7	X8	Y8	Z8	X9	Y9	Z9	X10	Y10	Z10	X11	Y11	Z11	X12	Y12	Z12	X13	Y13	Z13	X14	Y14	Z14	X15	Y15	Z15	X16	Y16	Z16	X17	Y17	Z17	X18	Y18	Z18	X19	Y19	Z19	X20	Y20	Z20	X21	Y21	Z21	X22	Y22	Z22	X23	Y23	Z23	X24	Y24	Z24

304	1.212	0.17007655	0.017084162	0.015931368	0.99418838	0.043606405	0.062687887	0.086558971	0.1403654	-0.049725842	0.8476371	0.051333771	0.10561394	0.12162868	0.1452653	0.04169156	0.84786423	0.09366451	0.014712045	0.016281698	0.16174823	-0.0033695682	0.77805948	0.030634468	0.059103616	0.37819988	0.44663637	-0.10099057	0.78063723	0.50563637	0.16628217	0.38885036	0.43576527	0.025819193	0.75759906	0.48408355	0.043628364	0.50058137	0.83911729	-0.12738569	0.57670318	0.84559276	0.23803821	0.61277186	0.91465488	-0.087069068	0.6414033	0.93280356	0.1530402	0.46174713	0.97815593	0.053712647	0.60098497	1.3782444	-0.12198176	0.58136674	1.3894019	0.2091021	0.52466787	1.4316575	0.04141368	0.47579894	1.0226653	-0.18990428	0.43891822	1.0593427	0.29683568	0.69176908	0.85915257	-0.19535279	0.55694782	0.81542444	0.33089101
305	1.216	0.17124822	0.017870142	0.015490668	0.9950528	0.04207909	0.060600194	0.091202084	0.14360733	-0.051099969	0.84844606	0.051349544	0.10494535	0.12720373	0.14777859	0.039918622	0.84840909	0.093086647	0.013793974	0.022097377	0.16689249	-0.0041764255	0.77843017	0.030868927	0.05899194	0.38794291	0.44561662	-0.10263401	0.78908639	0.50693467	0.1657224	0.39884053	0.43381253	0.02449207	0.76381215	0.48525935	0.043495361	0.50794034	0.83819917	-0.1270313	0.58406563	0.84649892	0.2383848	0.61999219	0.91414568	-0.086579761	0.64816522	0.93335969	0.15331668	0.46873088	0.97782861	0.053935989	0.6071261	1.3782534	-0.12175537	0.58807866	1.3891939	0.20938757	0.53102487	1.431413	0.04179911	0.48178663	1.0227387	-0.18932947	0.4454568	1.0595927	0.29660896	0.69621584	0.8576142	-0.19542552	0.56433709	0.81501332	0.33083241
306	1.22	0.17263591	0.018868398	0.014998142	0.99561682	0.041431902	0.059092536	0.096137468	0.14706414	-0.052387572	0.84873367	0.051588152	0.10429583	0.13302837	0.1504642	0.038265693	0.84860141	0.092442784	0.012921517	0.028258011	0.17223746	-0.0049300982	0.77876938	0.030919974	0.058710589	0.39782218	0.44453556	-0.10425194	0.7974108	0.5079144	0.16511027	0.40913406	0.43197219	0.022767063	0.77013123	0.48650078	0.043215424	0.5155586	0.83737696	-0.12649911	0.59122629	0.84748093	0.23881738	0.62718349	0.91368505	-0.086014145	0.65478317	0.93398107	0.15361195	0.4756475	0.97759197	0.054111801	0.61327783	1.3783257	-0.12152825	0.59476523	1.389043	0.20965143	0.53736305	1.4312286	0.042178317	0.48777724	1.0229288	-0.18874324	0.45196698	1.0598324	0.29635548	0.70059385	0.85609821	-0.1955076	0.57176285	0.81466175	0.33076152
307	1.224	0.1742124	0.020063805	0.014438594	0.99604294	0.041131477	0.058327178	0.10139538	0.15076368	-0.053603296	0.84872767	0.051939993	0.10387098	0.13906107	0.15332889	0.036758786	0.84869734	0.091884369	0.012310127	0.034774017	0.17778405	-0.0056670835	0.77907957	0.030920238	0.058532536	0.40781651	0.44340136	-0.10581547	0.80551559	0.50860174	0.16443944	0.41963495	0.43033257	0.020607683	0.77658331	0.48784943	0.042815654	0.52337658	0.83662895	-0.12581167	0.59818126	0.8485087	0.23932977	0.63431836	0.9132691	-0.085371267	0.66126635	0.93466649	0.15396023	0.48251602	0.97753447	0.054194197	0.61944732	1.3784524	-0.12130782	0.60143058	1.3889387	0.20990474	0.54369738	1.4311106	0.042546953	0.49376246	1.0232223	-0.18814876	0.45880953	1.0598867	0.29624488	0.70491062	0.85459784	-0.19559075	0.57922439	0.8143544	0.33067508
308	1.228	0.17595992	0.021435306	0.013809284	0.99641173	0.040861816	0.058087583	0.10701254	0.1546893	-0.054743812	0.84868458	0.052233932	0.10371272	0.14528103	0.15635482	0.03540994	0.84879888	0.09152138	0.012028942	0.041652096	0.1835187	-0.0064169153	0.77931156	0.030944779	0.058589254	0.41802181	0.44222591	-0.10729534	0.81341246	0.50911029	0.16384805	0.43021254	0.42876335	0.01831364	0.78318272	0.4893544	0.042345617	0.53120423	0.83588203	-0.12510522	0.60490506	0.84955307	0.23990872	0.64137199	0.91290377	-0.084656081	0.66764575	0.93542167	0.15439078	0.48927644	0.9776563	0.054222558	0.62563764	1.3786309	-0.12109964	0.60808882	1.3888776	0.21015593	0.55003866	1.4310604	0.042901045	0.4997423	1.0235936	-0.18753322	0.46609358	1.0597814	0.29632022	0.70916359	0.85311109	-0.19567388	0.5867176	0.81408124	0.33057078
309	1.232	0.17788764	0.022976799	0.013118375	0.99671797	0.040562135	0.058054853	0.11301016	0.15879104	-0.055787864	0.84879418	0.052332372	0.10371232	0.15168566	0.15952448	0.034218249	0.84888772	0.091394294	0.012026632	0.048889741	0.18942075	-0.0072013533	0.77944685	0.030993195	0.058826699	0.42850861	0.44102151	-0.10865207	0.82096057	0.50953261	0.16342529	0.44093605	0.42702264	0.016246278	0.78990969	0.49100038	0.041855569	0.53890142	0.83509141	-0.12451197	0.61137006	0.85059128	0.24053797	0.64831627	0.9126028	-0.083884759	0.6739587	0.93625143	0.1549127	0.49580739	0.97785767	0.054281576	0.63184396	1.3788666	-0.1209074	0.61474856	1.3888699	0.21041008	0.55639291	1.4310839	0.043239495	0.50571661	1.0240308	-0.18688872	0.47360734	1.0596137	0.29649058	0.71334253	0.85164843	-0.19576574	0.59424658	0.81385091	0.33045131
310	1.236	0.18002878	0.024693898	0.012379623	0.99694297	0.040286778	0.058023036	0.11939821	0.16300946	-0.056720564	0.84912546	0.052209437	0.10372558	0.15828722	0.16282041	0.033170866	0.84895386	0.091492898	0.01217952	0.056482368	0.19545743	-0.0080271629	0.77951303	0.031044193	0.059110187	0.43925338	0.4397912	-0.10987639	0.82782312	0.50989341	0.1630947	0.45199529	0.42499284	0.014529461	0.79669729	0.49268121	0.041388584	0.54646293	0.83427248	-0.12407905	0.61757405	0.85160608	0.24119792	0.6551275	0.91237512	-0.083081758	0.68023689	0.93714132	0.15551344	0.50199847	0.97803697	0.054402488	0.63805897	1.379162	-0.12073189	0.62140463	1.3889268	0.21066419	0.5627594	1.4311882	0.043559924	0.51168332	1.0245349	-0.18622565	0.48103178	1.0594475	0.29662212	0.71744004	0.85022412	-0.19587374	0.60182298	0.81368168	0.33032299
311	1.24	0.18241993	0.026588003	0.011606468	0.99709888	0.040076384	0.057927135	0.12619058	0.16729138	-0.057555682	0.84961437	0.051956626	0.10368557	0.16511653	0.16621483	0.032245728	0.84905804	0.091756582	0.012349977	0.064432331	0.20158123	-0.008881152	0.77955116	0.031093443	0.059328143	0.45019239	0.43852333	-0.1110232	0.83385991	0.51017873	0.16278173	0.4633609	0.42276967	0.013130714	0.80344033	0.49423464	0.040970229	0.55394433	0.83345881	-0.12379583	0.62355234	0.85257891	0.24186551	0.66180074	0.91221903	-0.082270536	0.68650224	0.93805022	0.15616767	0.50782574	0.97817336	0.054531196	0.64428308	1.3795078	-0.12056816	0.62804424	1.3890458	0.21090669	0.56912571	1.4313703	0.043854818	0.51763985	1.0251041	-0.18556035	0.4882682	1.0592989	0.2966771	0.72146237	0.84884047	-0.1959952	0.60945512	0.81358112	0.33019145
312	1.244	0.18508353	0.028653095	0.010808721	0.9972152	0.039927596	0.057769115	0.13340172	0.17160273	-0.058330132	0.85011058	0.051721626	0.10362592	0.17222618	0.16967414	0.031421388	0.8492821	0.092075764	0.012441925	0.072747915	0.20774284	-0.0097360029	0.77958739	0.031140954	0.059428719	0.46130882	0.43719734	-0.11216248	0.83932849	0.51037767	0.16254982	0.47486995	0.42057155	0.011983627	0.81002286	0.4955115	0.040602885	0.56137053	0.83267384	-0.12362237	0.62936513	0.85348935	0.24251558	0.66834824	0.91213097	-0.08146885	0.69276311	0.9389271	0.1568442	0.51343682	0.97830428	0.054599302	0.65052228	1.3798895	-0.12040697	0.63465289	1.3892155	0.21112433	0.5754702	1.4316165	0.044116075	0.52358185	1.0257307	-0.18490189	0.49548163	1.0591583	0.29674215	0.72543329	0.84748381	-0.19611743	0.61713834	0.81354002	0.33005716
313	1.248	0.18802275	0.03088125	0.0099950805	0.9973171	0.039815284	0.057570408	0.14103604	0.17593382	-0.059073253	0.85047401	0.051618294	0.10361564	0.17966688	0.17317082	0.030690899	0.84964926	0.092334547	0.012428958	0.081432377	0.21390842	-0.010565513	0.7796285	0.031177141	0.059418945	0.47263539	0.4358082	-0.11328956	0.84456441	0.51048664	0.16248808	0.48657475	0.41859772	0.010958345	0.81634539	0.49643348	0.040274745	0.56871347	0.83193747	-0.12349686	0.63507362	0.85432443	0.24312197	0.67478213	0.91211722	-0.080692991	0.69901068	0.93973756	0.1575116	0.51912155	0.97846492	0.054600949	0.65677511	1.3803004	-0.1202404	0.64121641	1.3894297	0.211309	0.58177133	1.4319141	0.044343155	0.52950443	1.0264088	-0.1842558	0.50279379	1.0590119	0.29688394	0.72937572	0.84613993	-0.1962285	0.62485843	0.81354827	0.32991428
314	1.252	0.19122162	0.033262055	0.0091754225	0.99741619	0.039715406	0.057375724	0.14908924	0.1802839	-0.059786119	0.85064872	0.051667528	0.10368167	0.18744664	0.17668932	0.030068404	0.85010208	0.092470003	0.012343091	0.090476	0.22006466	-0.011356805	0.77966801	0.031191563	0.059346739	0.48418751	0.43438752	-0.11432613	0.84969109	0.51049744	0.16259243	0.49861132	0.41693548	0.0099469332	0.82235091	0.4970088	0.039969053	0.57592004	0.83126792	-0.12336989	0.64072722	0.85508754	0.24366018	0.6811046	0.91219417	-0.079962531	0.70522614	0.94047636	0.15814662	0.52508376	0.9786697	0.054588819	0.66302732	1.3807449	-0.12006653	0.64772444	1.3896935	0.21146231	0.58801627	1.4322589	0.044543831	0.53540622	1.027135	-0.18363082	0.51010007	1.058855	0.29705049	0.73328792	0.84481754	-0.19632719	0.63260196	0.81361001	0.3297556
